<?xml version="1.0" encoding="UTF-8"?>
<svg width="50px" height="50px" viewBox="0 0 50 50" version="1.1" xmlns="http://www.w3.org/2000/svg" xmlns:xlink="http://www.w3.org/1999/xlink">
    <title>Group 2</title>
    <defs>
        <linearGradient x1="4.12109375%" y1="0%" x2="93.9034598%" y2="88.6875%" id="linearGradient-1">
            <stop stop-color="#22AE85" offset="0%"></stop>
            <stop stop-color="#0CE8A4" offset="100%"></stop>
        </linearGradient>
        <polygon id="path-2" points="0 0.0624186047 24.76145 0.0624186047 24.76145 10.9747512 0 10.9747512"></polygon>
    </defs>
    <g id="symbols" stroke="none" stroke-width="1" fill="none" fill-rule="evenodd">
        <g id="Components/top_menu/monitor">
            <g id="Group-2">
                <g id="Colors/gradient_green" fill="url(#linearGradient-1)">
                    <rect id="Rectangle" x="0" y="0" width="50" height="50"></rect>
                </g>
                <g id="Group-8" transform="translate(13.000000, 11.000000)">
                    <g id="Group-3">
                        <mask id="mask-3" fill="white">
                            <use xlink:href="#path-2"></use>
                        </mask>
                        <g id="Clip-2"></g>
                        <path d="M12.78145,0.0967744186 L24.3797,4.18877442 C24.61245,4.27140233 24.76145,4.48296047 24.76145,4.72214651 C24.76145,4.97028605 24.61245,5.17263488 24.3797,5.2555186 L18.89245,7.19561163 L18.89245,5.65996047 C18.89245,5.19105349 18.47345,4.92423953 18.0822,4.76793721 C17.6627,4.61163488 17.17845,4.51058837 16.7407,4.43691395 C15.38995,4.21640233 13.9457,4.16114651 12.5857,4.16114651 C11.22545,4.16114651 9.7817,4.21640233 8.4402,4.43691395 C8.00245,4.51058837 7.5177,4.61163488 7.0987,4.76793721 C6.70745,4.92423953 6.2882,5.19105349 6.2882,5.65996047 L6.2882,7.19561163 L0.98745,5.31972791 L0.98745,9.03465814 C1.23895,9.14491395 1.4067,9.3841 1.4067,9.66907674 L1.4067,10.9747512 L-5e-05,10.9747512 L-5e-05,9.66907674 C-5e-05,9.3841 0.1677,9.14491395 0.41945,9.03465814 L0.41945,4.72214651 C0.41945,4.48296047 0.5682,4.27140233 0.8012,4.18877442 L12.39945,0.0967744186 C12.5297,0.050727907 12.65095,0.050727907 12.78145,0.0967744186" id="Fill-1" fill="#000000" mask="url(#mask-3)"></path>
                    </g>
                    <path d="M11.9943586,4 C8.13913713,4 5,4.54021856 5,5.19768588 L5,10 C6.21704246,9.33070495 8.88957143,8.87276623 11.9943586,8.87276623 C15.0993965,8.87276623 17.7832083,9.33070495 19,10 L19,5.19768588 C19,4.54021856 15.8613643,4 11.9943586,4" id="Fill-4" fill="#000000"></path>
                    <path d="M15.3264391,27.1435985 C15.479691,27.2992618 15.479691,27.8443367 15.3264391,28 C14.051084,27.9741406 12.7600299,27.9480277 11.7807127,27.9480277 C10.757538,27.9480277 9.45900822,27.9741406 8.20907052,28 C8.05606778,27.8443367 8.05606778,27.2992618 8.20907052,27.1435985 C10.2499377,27.0657669 10.6835285,26.935963 10.6835285,24.7817762 L10.6835285,14.7894117 C10.6835285,13.2061591 10.428607,12.2199538 9.48467481,12.2199538 L8.23448791,12.2199538 C6.55071019,12.2199538 5.37727386,12.8948326 4.86718166,14.9711878 C4.56117618,14.9711878 4.25492151,14.9450749 4,14.8413839 C4.28058809,13.5955708 4.53550959,12.2458131 4.63742836,11.0778316 C4.63742836,11.0519723 4.68851233,11 4.73959631,11 C5.70869674,11.0778316 8.71916272,11.2076355 10.6835285,11.2076355 L12.8773985,11.2076355 C14.8928482,11.2076355 17.7243957,11.0778316 18.5918266,11 C18.617244,11 18.6683279,11.0519723 18.6683279,11.0778316 C18.6939945,12.2458131 18.8213307,13.5694579 19,14.7632988 C18.7702467,14.8672433 18.4134064,14.8931027 18.1328183,14.8931027 C17.6989783,12.8948326 16.5001246,12.2199538 14.5865936,12.2199538 L14.0254174,12.2199538 C13.1071518,12.2199538 12.8517319,13.2061591 12.8517319,14.8672433 L12.8517319,24.7817762 C12.8517319,26.935963 13.2858211,27.0657669 15.3264391,27.1435985" id="Fill-6" fill="#000000"></path>
                </g>
            </g>
        </g>
    </g>
</svg>